<svg xmlns="http://www.w3.org/2000/svg" xmlns:xlink="http://www.w3.org/1999/xlink" width="500" zoomAndPan="magnify" viewBox="0 0 375 374.999991" height="500" preserveAspectRatio="xMidYMid meet" version="1.0"><defs><clipPath id="16ad95441c"><path d="M 122.082031 166 L 139 166 L 139 182 L 122.082031 182 Z M 122.082031 166 " clip-rule="nonzero"/></clipPath></defs><path fill="#0172bb" d="M 169.179688 103.234375 C 190.378906 103.039062 205.617188 115.636719 209.445312 136.511719 C 209.824219 138.578125 208.585938 140.59375 206.566406 141.171875 C 206.542969 141.175781 206.519531 141.183594 206.496094 141.191406 C 204.265625 141.828125 201.941406 140.476562 201.429688 138.210938 C 197.710938 121.761719 185.867188 111.976562 169.035156 111.4375 C 166.71875 111.363281 164.949219 109.339844 165.152344 107.027344 C 165.152344 107 165.15625 106.976562 165.15625 106.949219 C 165.339844 104.855469 167.082031 103.253906 169.179688 103.234375 " fill-opacity="1" fill-rule="nonzero"/><path fill="#0172bb" d="M 209.246094 108.03125 C 206.488281 111.375 201.546875 111.847656 198.207031 109.089844 C 194.867188 106.328125 194.390625 101.378906 197.148438 98.035156 C 199.90625 94.691406 204.847656 94.21875 208.1875 96.976562 C 211.527344 99.738281 212 104.6875 209.246094 108.03125 " fill-opacity="1" fill-rule="nonzero"/><path fill="#db0f10" d="M 129.613281 147.085938 C 140.042969 128.605469 158.558594 121.691406 178.527344 128.808594 C 180.503906 129.515625 181.628906 131.597656 181.117188 133.636719 C 181.113281 133.660156 181.105469 133.683594 181.097656 133.707031 C 180.535156 135.960938 178.203125 137.296875 175.988281 136.609375 C 159.90625 131.609375 145.515625 136.988281 136.636719 151.3125 C 135.414062 153.285156 132.777344 153.804688 130.878906 152.472656 C 130.855469 152.457031 130.835938 152.445312 130.816406 152.433594 C 129.09375 151.226562 128.582031 148.917969 129.613281 147.085938 " fill-opacity="1" fill-rule="nonzero"/><path fill="#db0f10" d="M 153.792969 114.742188 C 155.304688 118.804688 153.246094 123.328125 149.1875 124.84375 C 145.128906 126.359375 140.613281 124.296875 139.097656 120.234375 C 137.585938 116.171875 139.644531 111.648438 143.703125 110.132812 C 147.761719 108.617188 152.277344 110.679688 153.792969 114.742188 " fill-opacity="1" fill-rule="nonzero"/><path fill="#fdb620" d="M 147.757812 203.320312 C 136.988281 185.035156 140.265625 165.523438 156.40625 151.769531 C 158.003906 150.40625 160.367188 150.472656 161.875 151.9375 C 161.894531 151.953125 161.910156 151.96875 161.929688 151.984375 C 163.597656 153.601562 163.585938 156.292969 161.882812 157.867188 C 149.519531 169.316406 146.976562 184.480469 154.925781 199.34375 C 156.019531 201.390625 155.152344 203.9375 153.050781 204.917969 C 153.027344 204.929688 153.003906 204.941406 152.984375 204.949219 C 151.082031 205.839844 148.824219 205.128906 147.757812 203.320312 " fill-opacity="1" fill-rule="nonzero"/><g clip-path="url(#16ad95441c)"><path fill="#fdb620" d="M 131.871094 166.183594 C 136.144531 166.902344 139.023438 170.949219 138.308594 175.226562 C 137.589844 179.503906 133.546875 182.386719 129.273438 181.667969 C 125.003906 180.949219 122.121094 176.902344 122.839844 172.625 C 123.558594 168.347656 127.601562 165.464844 131.871094 166.183594 " fill-opacity="1" fill-rule="nonzero"/></g><path fill="#e53990" d="M 205.46875 215.703125 C 184.269531 215.898438 169.03125 203.304688 165.203125 182.429688 C 164.824219 180.359375 166.066406 178.34375 168.082031 177.769531 C 168.105469 177.761719 168.128906 177.753906 168.152344 177.75 C 170.386719 177.113281 172.707031 178.464844 173.21875 180.730469 C 176.9375 197.175781 188.78125 206.960938 205.613281 207.5 C 207.929688 207.574219 209.699219 209.601562 209.496094 211.914062 C 209.496094 211.9375 209.492188 211.960938 209.492188 211.988281 C 209.3125 214.082031 207.570312 215.6875 205.46875 215.703125 " fill-opacity="1" fill-rule="nonzero"/><path fill="#e53990" d="M 165.40625 210.910156 C 168.160156 207.566406 173.105469 207.09375 176.445312 209.851562 C 179.785156 212.613281 180.257812 217.5625 177.5 220.90625 C 174.742188 224.25 169.800781 224.722656 166.460938 221.964844 C 163.121094 219.203125 162.648438 214.253906 165.40625 210.910156 " fill-opacity="1" fill-rule="nonzero"/><path fill="#24a620" d="M 245.035156 171.851562 C 234.605469 190.335938 216.09375 197.25 196.121094 190.128906 C 194.144531 189.425781 193.019531 187.34375 193.53125 185.304688 C 193.539062 185.28125 193.542969 185.257812 193.550781 185.230469 C 194.113281 182.980469 196.445312 181.640625 198.660156 182.332031 C 214.746094 187.328125 229.132812 181.953125 238.015625 167.628906 C 239.238281 165.65625 241.871094 165.132812 243.773438 166.464844 C 243.792969 166.480469 243.8125 166.492188 243.832031 166.507812 C 245.554688 167.710938 246.070312 170.023438 245.035156 171.851562 " fill-opacity="1" fill-rule="nonzero"/><path fill="#24a620" d="M 220.859375 204.195312 C 219.34375 200.136719 221.40625 195.613281 225.460938 194.097656 C 229.519531 192.578125 234.035156 194.644531 235.550781 198.707031 C 237.066406 202.769531 235.003906 207.289062 230.945312 208.808594 C 226.886719 210.324219 222.371094 208.257812 220.859375 204.195312 " fill-opacity="1" fill-rule="nonzero"/><path fill="#32318f" d="M 226.890625 115.617188 C 237.660156 133.90625 234.382812 153.414062 218.242188 167.171875 C 216.644531 168.535156 214.28125 168.46875 212.773438 167.003906 C 212.757812 166.988281 212.738281 166.972656 212.71875 166.953125 C 211.054688 165.335938 211.0625 162.648438 212.765625 161.070312 C 225.132812 149.625 227.675781 134.460938 219.726562 119.59375 C 218.628906 117.546875 219.5 115.003906 221.601562 114.019531 C 221.621094 114.011719 221.644531 114 221.667969 113.988281 C 223.570312 113.097656 225.824219 113.808594 226.890625 115.617188 " fill-opacity="1" fill-rule="nonzero"/><path fill="#32318f" d="M 242.777344 152.757812 C 238.507812 152.039062 235.625 147.988281 236.34375 143.714844 C 237.058594 139.4375 241.105469 136.550781 245.375 137.269531 C 249.648438 137.988281 252.527344 142.039062 251.808594 146.3125 C 251.089844 150.589844 247.046875 153.476562 242.777344 152.757812 " fill-opacity="1" fill-rule="nonzero"/></svg>