<svg xmlns="http://www.w3.org/2000/svg" xmlns:xlink="http://www.w3.org/1999/xlink" width="500" zoomAndPan="magnify" viewBox="0 0 375 374.999991" height="500" preserveAspectRatio="xMidYMid meet" version="1.0"><path fill="#0172bb" d="M 148.726562 61.195312 C 192.101562 60.796875 223.28125 86.566406 231.109375 129.277344 C 231.882812 133.507812 229.351562 137.632812 225.222656 138.808594 C 225.171875 138.824219 225.125 138.835938 225.074219 138.847656 C 220.511719 140.15625 215.757812 137.386719 214.710938 132.75 C 207.101562 99.101562 182.867188 79.082031 148.433594 77.976562 C 143.6875 77.828125 140.074219 73.683594 140.484375 68.949219 C 140.488281 68.898438 140.496094 68.851562 140.496094 68.796875 C 140.867188 64.511719 144.429688 61.234375 148.726562 61.195312 " fill-opacity="1" fill-rule="nonzero"/><path fill="#0172bb" d="M 230.703125 71.003906 C 225.058594 77.847656 214.949219 78.816406 208.113281 73.167969 C 201.28125 67.519531 200.3125 57.394531 205.953125 50.554688 C 211.59375 43.710938 221.703125 42.746094 228.539062 48.390625 C 235.375 54.039062 236.339844 64.164062 230.703125 71.003906 " fill-opacity="1" fill-rule="nonzero"/><path fill="#db0f10" d="M 67.769531 150.914062 C 89.113281 113.101562 126.992188 98.957031 167.851562 113.519531 C 171.898438 114.964844 174.195312 119.222656 173.148438 123.394531 C 173.140625 123.441406 173.125 123.492188 173.113281 123.542969 C 171.960938 128.152344 167.191406 130.886719 162.65625 129.476562 C 129.75 119.25 100.3125 130.25 82.140625 159.558594 C 79.636719 163.597656 74.246094 164.660156 70.359375 161.9375 C 70.316406 161.90625 70.273438 161.878906 70.234375 161.851562 C 66.710938 159.386719 65.65625 154.65625 67.769531 150.914062 " fill-opacity="1" fill-rule="nonzero"/><path fill="#db0f10" d="M 117.242188 84.742188 C 120.339844 93.050781 116.121094 102.304688 107.820312 105.40625 C 99.519531 108.507812 90.277344 104.285156 87.179688 95.972656 C 84.082031 87.660156 88.300781 78.40625 96.601562 75.308594 C 104.902344 72.207031 114.144531 76.429688 117.242188 84.742188 " fill-opacity="1" fill-rule="nonzero"/><path fill="#fdb620" d="M 104.894531 265.96875 C 82.863281 228.554688 89.566406 188.636719 122.59375 160.492188 C 125.863281 157.703125 130.699219 157.84375 133.78125 160.835938 C 133.820312 160.867188 133.855469 160.902344 133.890625 160.9375 C 137.300781 164.246094 137.28125 169.75 133.796875 172.972656 C 108.496094 196.394531 103.292969 227.421875 119.558594 257.832031 C 121.800781 262.019531 120.023438 267.226562 115.722656 269.234375 C 115.675781 269.257812 115.632812 269.28125 115.585938 269.300781 C 111.695312 271.125 107.078125 269.671875 104.894531 265.96875 " fill-opacity="1" fill-rule="nonzero"/><path fill="#fdb620" d="M 72.394531 189.984375 C 81.132812 191.457031 87.027344 199.738281 85.558594 208.488281 C 84.089844 217.238281 75.816406 223.140625 67.078125 221.667969 C 58.339844 220.199219 52.445312 211.914062 53.914062 203.164062 C 55.382812 194.417969 63.65625 188.515625 72.394531 189.984375 " fill-opacity="1" fill-rule="nonzero"/><path fill="#e53990" d="M 222.976562 291.304688 C 179.601562 291.703125 148.425781 265.933594 140.59375 223.222656 C 139.816406 218.992188 142.355469 214.867188 146.484375 213.691406 C 146.53125 213.675781 146.578125 213.664062 146.628906 213.652344 C 151.191406 212.34375 155.945312 215.113281 156.992188 219.75 C 164.601562 253.398438 188.832031 273.417969 223.269531 274.523438 C 228.011719 274.671875 231.628906 278.816406 231.21875 283.550781 C 231.210938 283.601562 231.210938 283.648438 231.203125 283.703125 C 230.835938 287.988281 227.269531 291.265625 222.976562 291.304688 " fill-opacity="1" fill-rule="nonzero"/><path fill="#e53990" d="M 141.003906 281.496094 C 146.644531 274.652344 156.757812 273.683594 163.589844 279.332031 C 170.421875 284.980469 171.390625 295.105469 165.75 301.945312 C 160.109375 308.789062 149.996094 309.753906 143.164062 304.109375 C 136.328125 298.460938 135.363281 288.335938 141.003906 281.496094 " fill-opacity="1" fill-rule="nonzero"/><path fill="#24a620" d="M 303.929688 201.585938 C 282.589844 239.398438 244.710938 253.542969 203.847656 238.980469 C 199.804688 237.535156 197.503906 233.277344 198.554688 229.105469 C 198.566406 229.054688 198.578125 229.007812 198.589844 228.957031 C 199.742188 224.347656 204.511719 221.613281 209.046875 223.023438 C 241.957031 233.25 271.390625 222.25 289.5625 192.941406 C 292.066406 188.902344 297.457031 187.839844 301.34375 190.5625 C 301.386719 190.59375 301.429688 190.621094 301.46875 190.648438 C 304.992188 193.113281 306.042969 197.84375 303.929688 201.585938 " fill-opacity="1" fill-rule="nonzero"/><path fill="#24a620" d="M 254.460938 267.757812 C 251.363281 259.449219 255.582031 250.195312 263.882812 247.09375 C 272.183594 243.992188 281.425781 248.214844 284.523438 256.527344 C 287.621094 264.839844 283.402344 274.089844 275.101562 277.191406 C 266.800781 280.292969 257.558594 276.070312 254.460938 267.757812 " fill-opacity="1" fill-rule="nonzero"/><path fill="#32318f" d="M 266.808594 86.53125 C 288.839844 123.945312 282.136719 163.863281 249.109375 192.007812 C 245.835938 194.796875 241.003906 194.65625 237.917969 191.664062 C 237.886719 191.628906 237.851562 191.597656 237.8125 191.5625 C 234.402344 188.253906 234.417969 182.75 237.90625 179.523438 C 263.207031 156.105469 268.410156 125.078125 252.144531 94.667969 C 249.902344 90.476562 251.679688 85.273438 255.980469 83.261719 C 256.027344 83.242188 256.070312 83.21875 256.117188 83.199219 C 260.007812 81.375 264.625 82.828125 266.808594 86.53125 " fill-opacity="1" fill-rule="nonzero"/><path fill="#32318f" d="M 299.308594 162.515625 C 290.570312 161.042969 284.675781 152.761719 286.144531 144.011719 C 287.613281 135.261719 295.886719 129.359375 304.625 130.832031 C 313.363281 132.300781 319.253906 140.585938 317.789062 149.332031 C 316.320312 158.082031 308.046875 163.984375 299.308594 162.515625 " fill-opacity="1" fill-rule="nonzero"/></svg>